<svg width="50" height="50" viewBox="0 0 50 50" fill="none" xmlns="http://www.w3.org/2000/svg">
<g clip-path="url(#clip0_14_9236)">
<g filter="url(#filter0_iiii_14_9236)">
<path d="M40 0H10C4.47715 0 0 4.47715 0 10V40C0 45.5228 4.47715 50 10 50H40C45.5228 50 50 45.5228 50 40V10C50 4.47715 45.5228 0 40 0Z" fill="#0D0D0D"/>
<g filter="url(#filter1_ii_14_9236)">
<path d="M17.75 14.875C16.5764 14.875 15.625 15.8264 15.625 17C15.625 18.1736 16.5764 19.125 17.75 19.125C18.9236 19.125 19.875 18.1736 19.875 17C19.875 15.8264 18.9236 14.875 17.75 14.875Z" fill="white"/>
<path d="M15.75 20.875C15.681 20.875 15.625 20.931 15.625 21V34C15.625 34.069 15.681 34.125 15.75 34.125H19.75C19.819 34.125 19.875 34.069 19.875 34V21C19.875 20.931 19.819 20.875 19.75 20.875H15.75Z" fill="white"/>
<path d="M22.25 20.875C22.181 20.875 22.125 20.931 22.125 21V34C22.125 34.069 22.181 34.125 22.25 34.125H26.25C26.319 34.125 26.375 34.069 26.375 34V27C26.375 26.5027 26.5725 26.0258 26.9242 25.6742C27.2758 25.3225 27.7527 25.125 28.25 25.125C28.7473 25.125 29.2242 25.3225 29.5758 25.6742C29.9275 26.0258 30.125 26.5027 30.125 27V34C30.125 34.069 30.181 34.125 30.25 34.125H34.25C34.319 34.125 34.375 34.069 34.375 34V25.3802C34.375 22.9535 32.2644 21.055 29.8498 21.2745C29.1052 21.3422 28.369 21.5273 27.6815 21.8219L26.375 22.3819V21C26.375 20.931 26.319 20.875 26.25 20.875H22.25Z" fill="white"/>
</g>
</g>
</g>
<defs>
<filter id="filter0_iiii_14_9236" x="-2" y="0" width="54" height="52" filterUnits="userSpaceOnUse" color-interpolation-filters="sRGB">
<feFlood flood-opacity="0" result="BackgroundImageFix"/>
<feBlend mode="normal" in="SourceGraphic" in2="BackgroundImageFix" result="shape"/>
<feColorMatrix in="SourceAlpha" type="matrix" values="0 0 0 0 0 0 0 0 0 0 0 0 0 0 0 0 0 0 127 0" result="hardAlpha"/>
<feOffset dx="-2"/>
<feGaussianBlur stdDeviation="3"/>
<feComposite in2="hardAlpha" operator="arithmetic" k2="-1" k3="1"/>
<feColorMatrix type="matrix" values="0 0 0 0 0 0 0 0 0 0 0 0 0 0 0 0 0 0 0.25 0"/>
<feBlend mode="normal" in2="shape" result="effect1_innerShadow_14_9236"/>
<feColorMatrix in="SourceAlpha" type="matrix" values="0 0 0 0 0 0 0 0 0 0 0 0 0 0 0 0 0 0 127 0" result="hardAlpha"/>
<feOffset dx="2" dy="2"/>
<feGaussianBlur stdDeviation="3"/>
<feComposite in2="hardAlpha" operator="arithmetic" k2="-1" k3="1"/>
<feColorMatrix type="matrix" values="0 0 0 0 0 0 0 0 0 0 0 0 0 0 0 0 0 0 0.15 0"/>
<feBlend mode="normal" in2="effect1_innerShadow_14_9236" result="effect2_innerShadow_14_9236"/>
<feColorMatrix in="SourceAlpha" type="matrix" values="0 0 0 0 0 0 0 0 0 0 0 0 0 0 0 0 0 0 127 0" result="hardAlpha"/>
<feOffset dy="2"/>
<feGaussianBlur stdDeviation="4"/>
<feComposite in2="hardAlpha" operator="arithmetic" k2="-1" k3="1"/>
<feColorMatrix type="matrix" values="0 0 0 0 1 0 0 0 0 1 0 0 0 0 1 0 0 0 0.1 0"/>
<feBlend mode="normal" in2="effect2_innerShadow_14_9236" result="effect3_innerShadow_14_9236"/>
<feColorMatrix in="SourceAlpha" type="matrix" values="0 0 0 0 0 0 0 0 0 0 0 0 0 0 0 0 0 0 127 0" result="hardAlpha"/>
<feOffset dx="2"/>
<feGaussianBlur stdDeviation="2.5"/>
<feComposite in2="hardAlpha" operator="arithmetic" k2="-1" k3="1"/>
<feColorMatrix type="matrix" values="0 0 0 0 1 0 0 0 0 1 0 0 0 0 1 0 0 0 0.1 0"/>
<feBlend mode="normal" in2="effect3_innerShadow_14_9236" result="effect4_innerShadow_14_9236"/>
</filter>
<filter id="filter1_ii_14_9236" x="14.625" y="14.875" width="20.75" height="20.25" filterUnits="userSpaceOnUse" color-interpolation-filters="sRGB">
<feFlood flood-opacity="0" result="BackgroundImageFix"/>
<feBlend mode="normal" in="SourceGraphic" in2="BackgroundImageFix" result="shape"/>
<feColorMatrix in="SourceAlpha" type="matrix" values="0 0 0 0 0 0 0 0 0 0 0 0 0 0 0 0 0 0 127 0" result="hardAlpha"/>
<feOffset dx="-1" dy="1"/>
<feGaussianBlur stdDeviation="1"/>
<feComposite in2="hardAlpha" operator="arithmetic" k2="-1" k3="1"/>
<feColorMatrix type="matrix" values="0 0 0 0 0.156863 0 0 0 0 0.0980392 0 0 0 0 0.0627451 0 0 0 0.3 0"/>
<feBlend mode="normal" in2="shape" result="effect1_innerShadow_14_9236"/>
<feColorMatrix in="SourceAlpha" type="matrix" values="0 0 0 0 0 0 0 0 0 0 0 0 0 0 0 0 0 0 127 0" result="hardAlpha"/>
<feOffset dx="1" dy="1"/>
<feGaussianBlur stdDeviation="0.5"/>
<feComposite in2="hardAlpha" operator="arithmetic" k2="-1" k3="1"/>
<feColorMatrix type="matrix" values="0 0 0 0 0.7 0 0 0 0 0.7 0 0 0 0 0.7 0 0 0 0.25 0"/>
<feBlend mode="normal" in2="effect1_innerShadow_14_9236" result="effect2_innerShadow_14_9236"/>
</filter>
<clipPath id="clip0_14_9236">
<rect width="50" height="50" rx="25" fill="white"/>
</clipPath>
</defs>
</svg>
